Coordinates
nRows=115
nColumns=2
inDegrees=yes
endheader
time	ankle_angle_r	
4.00806	  9.229186	
4.07964	  9.176203	
4.15121	  9.195695	
4.22278	  9.240019	
4.29435	  9.265269	
4.36593	  9.241845	
4.4375	  9.246546	
4.50907	  9.304236	
4.58065	  9.282745	
4.65222	  9.213714	
4.72379	  9.236554	
4.79536	  9.308186	
4.86694	  9.319842	
4.93851	  9.301848	
5.01008	  9.317471	
5.08165	  9.337356	
5.15323	  9.328306	
5.2248	  9.322576	
5.29637	  9.345848	
5.36794	  9.368201	
5.43952	  9.357391	
5.51109	  9.330030	
5.58266	  9.345168	
5.65423	  9.344403	
5.72581	  9.258340	
5.79738	  9.244523	
5.86895	  9.305934	
5.94052	  9.293672	
6.0121	  9.261658	
6.08367	  9.242352	
6.15524	  9.232863	
6.22681	  9.266331	
6.29839	  9.296059	
6.36996	  9.299572	
6.44153	  9.326459	
6.5131	  9.352244	
6.58468	  9.333623	
6.65625	  9.338991	
6.72782	  9.374111	
6.7994	  9.384692	
6.87097	  9.363510	
6.94254	  9.355455	
7.01411	  9.395468	
7.08569	  9.383858	
7.15726	  9.338852	
7.22883	  9.347542	
7.3004	  9.339443	
7.37198	  9.296672	
7.44355	  9.277530	
7.51512	  9.306249	
7.58669	  9.307841	
7.65827	  9.253636	
7.72984	  9.231901	
7.80141	  9.256324	
7.87298	  9.301304	
7.94456	  9.332381	
8.01613	  9.339903	
8.0877	  9.359152	
8.15927	  9.376018	
8.23085	  9.354975	
8.30242	  9.329397	
8.37399	  9.363967	
8.44556	  9.387707	
8.51714	  9.349027	
8.58871	  9.332100	
8.66028	  9.341105	
8.73185	  9.326005	
8.80343	  9.268200	
8.875	  9.223969	
8.94657	  9.238238	
9.01815	  9.255368	
9.08972	  9.260039	
9.16129	  9.272753	
9.23286	  9.301419	
9.30444	  9.290998	
9.37601	  9.234783	
9.44758	  9.245556	
9.51915	  9.294368	
9.59073	  9.250869	
9.6623	  9.193461	
9.73387	  9.248072	
9.80544	  9.291604	
9.87702	  9.273297	
9.94859	  9.274930	
10.0202	  9.309176	
10.0917	  9.372358	
10.1633	  9.375471	
10.2349	  9.328457	
10.3065	  9.334476	
10.378	  9.372432	
10.4496	  9.366403	
10.5212	  9.317080	
10.5927	  9.329726	
10.6643	  9.367930	
10.7359	  9.345954	
10.8075	  9.301118	
10.879	  9.275922	
10.9506	  9.295111	
11.0222	  9.289580	
11.0937	  9.267014	
11.1653	  9.267190	
11.2369	  9.240104	
11.3085	  9.216095	
11.38	  9.183256	
11.4516	  9.214742	
11.5232	  9.341047	
11.5948	  9.338857	
11.6663	  9.239192	
11.7379	  9.258396	
11.8095	  9.332358	
11.881	  9.318473	
11.9526	  9.291877	
12.0242	  9.307143	
12.0958	  9.304485	
12.1673	  9.308094	
